<?xml version="1.0" encoding="UTF-8"?>
<svg version="1.1" xmlns="http://www.w3.org/2000/svg" width="500" height="500">
<path d="M0 0 C2.04601241 1.4291435 3.83785623 2.92924373 5.6484375 4.64453125 C6.20144531 5.15757812 6.75445312 5.670625 7.32421875 6.19921875 C14.69764333 13.84708841 16.25472598 23.19147464 16.11889648 33.43481445 C15.73816703 42.49414494 12.88810112 49.23287803 6.6171875 55.8359375 C-9.48077783 70.62434613 -32.40294101 72.92633604 -53.3515625 72.64453125 C-63.69832943 72.19965301 -74.18560799 71.67772215 -84.3515625 69.64453125 C-84.3515625 59.41453125 -84.3515625 49.18453125 -84.3515625 38.64453125 C-81.0515625 39.30453125 -77.7515625 39.96453125 -74.3515625 40.64453125 C-74.25875 38.54078125 -74.25875 38.54078125 -74.1640625 36.39453125 C-72.8396764 23.38979549 -65.62673656 11.75419013 -55.78125 3.43359375 C-40.43033748 -7.86981129 -16.68933389 -9.61993166 0 0 Z M-39.37890625 24.3125 C-45.34215221 30.62874995 -47.56124436 37.03524062 -47.3515625 45.64453125 C-44.37182635 45.72637548 -41.39439418 45.78542889 -38.4140625 45.83203125 C-37.58326172 45.85716797 -36.75246094 45.88230469 -35.89648438 45.90820312 C-29.56011377 45.98216854 -22.88828068 45.41463356 -17.72290039 41.36889648 C-14.3932763 37.78912082 -13.3515625 34.45970983 -13.3515625 29.64453125 C-15.16272973 25.06334355 -18.09716102 22.98028108 -22.3515625 20.64453125 C-28.4944837 18.59689085 -34.44803577 20.25569519 -39.37890625 24.3125 Z " fill="#FEFEFE" transform="translate(216.3515625,128.35546875)"/>
<path d="M0 0 C8.58 0 17.16 0 26 0 C25.236875 3.898125 24.47375 7.79625 23.6875 11.8125 C19.73996271 32.74175078 17.66135769 53.72252677 17 75 C17.49628906 74.52949219 17.99257813 74.05898437 18.50390625 73.57421875 C26.62346815 66.13257094 33.9768049 63.79982091 45 64 C49.98707048 64.75317927 53.10551574 66.20274229 56.875 69.5625 C63.49231537 78.85879772 62.78288608 90.24018353 61 100.9375 C58.12976662 114.19202111 52.843082 131.156918 43 141 C41.07521187 141.15806531 39.1450079 141.251135 37.21484375 141.31640625 C35.46010742 141.37924805 35.46010742 141.37924805 33.66992188 141.44335938 C32.43822266 141.48267578 31.20652344 141.52199219 29.9375 141.5625 C28.08415039 141.62727539 28.08415039 141.62727539 26.19335938 141.69335938 C23.12902665 141.79984198 20.06460927 141.90185424 17 142 C17.38599365 141.2972998 17.7719873 140.59459961 18.16967773 139.87060547 C31.30158976 117.82541877 31.30158976 117.82541877 37.25 93.4375 C37.27578125 92.67308594 37.3015625 91.90867187 37.328125 91.12109375 C37.15225056 88.93035386 37.15225056 88.93035386 35.7265625 87.21875 C33.82449028 85.62182994 33.82449028 85.62182994 30.125 86.0625 C26.1402836 86.74977219 23.82386624 88.01476998 21 91 C15.30416273 99.44555182 18.41976864 109.61737631 20 119 C13.4 119 6.8 119 0 119 C-7.27217065 88.91965778 -6.40173435 56.90444569 -3.625 26.25 C-3.56196686 25.55097565 -3.49893372 24.85195129 -3.43399048 24.13174438 C-2.67534614 15.94628171 -1.47697072 8.12333896 0 0 Z " fill="#FEFEFE" transform="translate(298,105)"/>
<path d="M0 0 C2.90990931 2.90990931 2.97993468 6.33353199 3.625 10.25 C3.82609375 11.37728516 3.82609375 11.37728516 4.03125 12.52734375 C4.75076645 16.73431236 5.15011643 20.71485831 5 25 C1.37 25.66 -2.26 26.32 -6 27 C-5.71125 27.97195313 -5.4225 28.94390625 -5.125 29.9453125 C0.3268227 49.62086303 0.44372496 71.558815 -9.58203125 89.8828125 C-13.75053654 96.10686172 -19.00349609 100.74619485 -26.1875 103 C-34.72338238 103 -41.04709627 97.50311503 -47.08984375 91.96484375 C-48.92324992 90.07894743 -50.47822893 88.14192856 -52 86 C-52.42410156 86.73605469 -52.84820312 87.47210938 -53.28515625 88.23046875 C-57.53752372 95.30528671 -60.86571981 100.01630084 -68.75 103.0625 C-78.83758057 102.86850807 -86.7245611 97.09518472 -93.71484375 90.34375 C-102.02755297 81.37533089 -105.36259076 70.38468081 -105.25 58.375 C-105.25773437 57.54226563 -105.26546875 56.70953125 -105.2734375 55.8515625 C-105.27085938 55.04203125 -105.26828125 54.2325 -105.265625 53.3984375 C-105.26336914 52.67317871 -105.26111328 51.94791992 -105.25878906 51.20068359 C-105 49 -105 49 -103 44 C-95.74 44 -88.48 44 -81 44 C-81.33 45.98 -81.66 47.96 -82 50 C-82.85431616 60.65794423 -81.92790446 71.85890162 -74.75 80.3125 C-73.38875 81.6428125 -73.38875 81.6428125 -72 83 C-68.9602487 82.33682578 -68.9602487 82.33682578 -67.90234375 80.27734375 C-64.64016944 72.36624086 -63.79641436 64.44618389 -63 56 C-58.28609643 55.35488604 -53.7667171 54.87791604 -49 54.9375 C-48.05125 54.94652344 -47.1025 54.95554687 -46.125 54.96484375 C-45.42375 54.97644531 -44.7225 54.98804688 -44 55 C-43.79246094 55.83402344 -43.58492187 56.66804688 -43.37109375 57.52734375 C-40.94660621 66.38331708 -37.85007261 73.76661826 -30 79 C-28.68 79 -27.36 79 -26 79 C-25.34642722 77.77493102 -24.70251767 76.54470484 -24.0625 75.3125 C-23.70285156 74.62800781 -23.34320313 73.94351563 -22.97265625 73.23828125 C-17.32817815 60.24918105 -21.763622 43.73719157 -26.375 31.125 C-28.43396355 25.99949499 -30.9631322 21.59868553 -34 17 C-34 16.34 -34 15.68 -34 15 C-33.04130005 14.58488159 -33.04130005 14.58488159 -32.06323242 14.16137695 C-29.10421546 12.87942974 -26.14585613 11.59597143 -23.1875 10.3125 C-21.68026367 9.65991211 -21.68026367 9.65991211 -20.14257812 8.99414062 C-13.39591884 6.06552646 -6.6854133 3.06583266 0 0 Z " fill="#FEFEFE" transform="translate(163,252)"/>
<path d="M0 0 C5.70785155 7.29468165 8.35620936 14.6245796 8.125 23.875 C8.08375 26.22625 8.0425 28.5775 8 31 C0.74 31 -6.52 31 -14 31 C-14.1953125 27.45182292 -14.390625 23.90364583 -14.5859375 20.35546875 C-14.76102939 16.87244766 -14.76102939 16.87244766 -17 14 C-20 13.58333333 -20 13.58333333 -23 14 C-25.55409784 16.55409784 -25.78432068 18.73803559 -26.08203125 22.265625 C-25.7613925 32.9535835 -19.80688709 42.77980658 -14.99609375 52.05419922 C-8.71419599 64.32545538 -2.33543891 77.75705823 -6.15625 91.80859375 C-9.24721765 99.83652363 -14.37147883 105.1221684 -22 109 C-30.00152451 112.18093392 -39.22107422 112.3526118 -47.375 109.5 C-55.10249511 105.87773667 -60.26777101 99.98570887 -63.32421875 92.08203125 C-65.23316633 86.20070719 -65.39345886 80.14490157 -65 74 C-64 73 -64 73 -61.86694336 72.88647461 C-60.49227905 72.89432983 -60.49227905 72.89432983 -59.08984375 72.90234375 C-58.10048828 72.90556641 -57.11113281 72.90878906 -56.09179688 72.91210938 C-55.05087891 72.92048828 -54.00996094 72.92886719 -52.9375 72.9375 C-51.37032227 72.94426758 -51.37032227 72.94426758 -49.77148438 72.95117188 C-47.1809334 72.96300087 -44.59049441 72.97948311 -42 73 C-42.01232666 73.75200684 -42.02465332 74.50401367 -42.03735352 75.27880859 C-42.04694092 76.26703613 -42.05652832 77.25526367 -42.06640625 78.2734375 C-42.07873291 79.25231934 -42.09105957 80.23120117 -42.10375977 81.23974609 C-41.96495348 84.93231985 -41.3469423 87.12310298 -39 90 C-35.60030189 91.3309316 -35.60030189 91.3309316 -32 91 C-29.32089444 88.96196612 -28.15781555 87.72268639 -27.43359375 84.40625 C-27.44749964 74.0602712 -31.02907474 66.63774014 -35.828125 57.7265625 C-45.66400232 39.42550674 -45.66400232 39.42550674 -48.25 30.5 C-48.44207031 29.83718018 -48.63414062 29.17436035 -48.83203125 28.49145508 C-50.89946799 20.58289909 -50.28703036 13.42195194 -47 6 C-42.119096 -1.35288639 -36.34174222 -5.41706778 -27.8125 -7.375 C-17.6788989 -8.90198099 -7.83815264 -6.80608272 0 0 Z " fill="#FEFEFE" transform="translate(453,266)"/>
<path d="M0 0 C8.25 0 16.5 0 25 0 C24.43203966 13.91502829 22.7201514 29.31984929 12.296875 39.6953125 C10.20274963 43.41680036 10.94718303 47.10011763 11.3125 51.25 C11.539375 54.1375 11.76625 57.025 12 60 C4.41 60 -3.18 60 -11 60 C-11.2475 57.751875 -11.495 55.50375 -11.75 53.1875 C-13.00986527 43.26713966 -15.18851017 33.8503903 -23 27 C-26.85896938 24.49688473 -30.49129816 24.82467573 -34.90625 25.46484375 C-37.98771072 26.25245591 -39.32540334 27.30608363 -41 30 C-41.50347322 33.45238782 -41.41556154 35.26782014 -39.6875 38.3125 C-37.06323876 40.93676124 -34.42801082 41.17359117 -30.875 41.25 C-25.86068446 41.21706525 -21.62524398 39.83697633 -17 38 C-13.99710222 44.7891602 -12.875835 49.55010012 -13 57 C-24.37608615 61.51120658 -34.44402556 62.61118851 -46 58 C-53.86796265 54.43635795 -57.89536426 48.68759778 -61.375 40.9375 C-63.06001182 33.01794447 -61.80301615 27.07721053 -58 20 C-53.55622172 13.40340686 -47.74437294 8.91479098 -40.171875 6.390625 C-29.42078692 4.45697606 -18.50227864 5.53516699 -9.39453125 11.7890625 C-7.83010991 12.99782048 -6.2877973 14.23616394 -4.77734375 15.51171875 C-3.05984087 17.06647492 -3.05984087 17.06647492 -1 18 C-0.67 12.06 -0.34 6.12 0 0 Z " fill="#FEFEFE" transform="translate(234,285)"/>
<path d="M0 0 C1.43770849 2.66039095 2.33643773 4.99183315 2.8515625 7.96875 C2.98046875 8.70480469 3.109375 9.44085938 3.2421875 10.19921875 C3.36851562 10.95847656 3.49484375 11.71773438 3.625 12.5 C3.82609375 13.63888672 3.82609375 13.63888672 4.03125 14.80078125 C4.63320179 18.30807176 5 21.41258421 5 25 C1.37 25.99 -2.26 26.98 -6 28 C-5.525625 29.815 -5.05125 31.63 -4.5625 33.5 C0.14500168 52.59646909 -0.61805058 72.39692055 -10.04296875 89.95703125 C-12.79234119 94.23200356 -15.74611992 97.24301212 -20 100 C-20.57621094 100.37898438 -21.15242188 100.75796875 -21.74609375 101.1484375 C-25.94119747 103.41553743 -29.2224168 103.0900575 -33.609375 101.8515625 C-46.13583334 97.38952342 -54.10437009 89.91982495 -60 78 C-63.04287381 71.55829355 -63.26606481 65.19722287 -63.3125 58.1875 C-63.31813965 57.36258057 -63.3237793 56.53766113 -63.32958984 55.68774414 C-63.27286938 50.97273536 -62.8434425 48.60860624 -61 44 C-53.74 44 -46.48 44 -39 44 C-39.33 45.65 -39.66 47.3 -40 49 C-40.83902842 59.2060574 -40.93190958 68.80961427 -36 78 C-35.67 78.99 -35.34 79.98 -35 81 C-33.35 81.33 -31.7 81.66 -30 82 C-22.71907653 72.96161224 -22.12576076 61.17349608 -23 50 C-24.69919927 37.183559 -29.23391124 26.41918728 -35 15 C-34.33057373 14.72325439 -33.66114746 14.44650879 -32.97143555 14.16137695 C-29.87597541 12.88037739 -26.78173612 11.59645319 -23.6875 10.3125 C-22.63498047 9.87744141 -21.58246094 9.44238281 -20.49804688 8.99414062 C-13.60125499 6.12931938 -6.77777462 3.13606087 0 0 Z " fill="#FEFEFE" transform="translate(326,252)"/>
<path d="M0 0 C4.7216518 3.59125635 7.50823466 7.95332597 8.90625 13.71484375 C9.20820845 18.11056675 9.09220057 22.29851775 8.90625 26.71484375 C1.97625 26.71484375 -4.95375 26.71484375 -12.09375 26.71484375 C-12.75375 23.41484375 -13.41375 20.11484375 -14.09375 16.71484375 C-17.57314739 14.97514506 -21.28961218 15.26654468 -25.09375 15.71484375 C-29.17571621 17.60464292 -30.71537946 19.03638623 -32.90625 22.96484375 C-35.51392344 31.19960199 -35.88956845 38.79627647 -32.125 46.765625 C-28.47363236 52.5263976 -23.69280145 54.81630173 -17.21484375 56.43359375 C-8.58955858 58.04223589 -0.76988594 57.52569758 7.90625 56.71484375 C7.90625 63.64484375 7.90625 70.57484375 7.90625 77.71484375 C-6.38951623 80.89168069 -21.15462264 81.4058466 -34.34375 74.08984375 C-45.00886646 67.02593544 -52.11440269 57.78562892 -55.46875 45.33984375 C-57.73973585 32.23436289 -56.16278147 19.56715666 -48.90625 8.27734375 C-37.32100765 -6.93909396 -16.11551569 -9.89179974 0 0 Z " fill="#FEFEFE" transform="translate(282.09375,163.28515625)"/>
<path d="M0 0 C5.34684883 5.80515016 7.51312573 11.61547059 7.75 19.5 C7.38598697 27.90870092 5.25131539 32.5708241 -0.5625 38.5625 C-8.55081431 45.28114846 -20.53144952 48.13104287 -30.8125 48.375 C-31.82054687 48.41367187 -32.82859375 48.45234375 -33.8671875 48.4921875 C-43.3496555 48.68570726 -52.42642029 47.60596127 -61.8125 46.375 C-61.8125 39.115 -61.8125 31.855 -61.8125 24.375 C-59.5025 25.035 -57.1925 25.695 -54.8125 26.375 C-54.79832031 25.75753906 -54.78414063 25.14007813 -54.76953125 24.50390625 C-54.24350144 15.16332291 -50.43409858 7.99659858 -43.8125 1.375 C-30.01560462 -8.19743882 -14.47160337 -8.36137083 0 0 Z M-35.0078125 20.140625 C-36.12856504 23.25261749 -35.93853095 26.09819529 -35.8125 29.375 C-33.60479195 29.45665496 -31.39619575 29.51448488 -29.1875 29.5625 C-27.34285156 29.61470703 -27.34285156 29.61470703 -25.4609375 29.66796875 C-21.50003202 29.34990889 -19.17671186 28.44490422 -15.8125 26.375 C-13.63210224 23.70225436 -12.8125 22.26872659 -12.8125 18.8125 C-14.21021795 15.40556251 -15.6179685 14.21015639 -18.8125 12.375 C-26.36864045 11.15626767 -30.75418401 13.85748749 -35.0078125 20.140625 Z " fill="#FEFEFE" transform="translate(389.8125,276.625)"/>
<path d="M0 0 C0.70302246 0.00161133 1.40604492 0.00322266 2.13037109 0.00488281 C8.14340726 0.14565162 12.95403984 1.46323647 18.25 4.375 C19.3225 4.931875 20.395 5.48875 21.5 6.0625 C27.79462576 11.35570802 31.03616472 17.54354275 32.125 25.67578125 C32.45850936 32.8774989 30.5057066 37.97635992 25.953125 43.5234375 C18.47914076 51.64882404 11.64513567 54.8379342 0.59375 55.43359375 C-8.24462316 55.27871572 -16.15549029 52.30236087 -22.75 46.375 C-27.95616071 40.14101357 -31.26423688 33.74197629 -30.99609375 25.4453125 C-30.08153785 17.75142952 -25.85721447 10.61322298 -19.79296875 5.83203125 C-13.49438996 1.7253097 -7.54630529 -0.01805768 0 0 Z M-8.75 21.375 C-10.64590453 23.87414688 -10.75468866 25.15463304 -10.6875 28.3125 C-9.44234833 32.37999545 -8.26120781 33.93865173 -4.75 36.375 C-0.02236265 37.19787284 3.92911375 36.96805097 8.3125 35 C10.3470615 33.51247501 10.3470615 33.51247501 11.25 31.375 C11.87559723 25.71758799 11.87559723 25.71758799 9.375 20.9375 C3.9055632 16.91585529 -3.47431634 16.89866235 -8.75 21.375 Z " fill="#FEFEFE" transform="translate(394.75,171.625)"/>
<path d="M0 0 C4.25377146 0.0391911 8.49977567 0.14355374 12.75024414 0.30517578 C14.19185155 0.35119651 15.63411516 0.38024787 17.07641602 0.39111328 C29.05907509 0.49910258 29.05907509 0.49910258 33.84082031 4.19677734 C36.19921875 6.859375 36.19921875 6.859375 38.11987305 9.49121094 C43.7340887 16.98266401 52.3465221 20.29898841 61 23 C63.97 23.99 63.97 23.99 67 25 C67 36.55 67 48.1 67 60 C50.87863616 56.77572723 39.64299732 53.24344918 27 43 C26.30519531 42.46890625 25.61039063 41.9378125 24.89453125 41.390625 C11.98419429 30.97989419 3.66141534 16.00108916 0 0 Z " fill="#FEFEFE" transform="translate(143,202)"/>
<path d="M0 0 C3.39751161 -0.00628255 6.79080635 0.05344358 10.1875 0.125 C11.14720703 0.12242187 12.10691406 0.11984375 13.09570312 0.1171875 C20.11541005 0.31150465 20.11541005 0.31150465 22.64648438 2.28149414 C23.85904034 3.78252108 24.93472677 5.39109765 26 7 C32.16920633 12.34276548 37.88776755 13.78757297 46 16 C46 24.25 46 32.5 46 41 C30.78417783 39.09802223 18.99174551 32.98492988 9.33984375 20.87109375 C4.45196352 14.04516188 1.57092613 8.24398626 0 0 Z " fill="#FDFDFD" transform="translate(336,326)"/>
<path d="M0 0 C1.93166016 0.01740234 1.93166016 0.01740234 3.90234375 0.03515625 C5.19269531 0.04417969 6.48304688 0.05320312 7.8125 0.0625 C8.81152344 0.07410156 9.81054688 0.08570313 10.83984375 0.09765625 C10.83984375 2.40765625 10.83984375 4.71765625 10.83984375 7.09765625 C11.49984375 6.76765625 12.15984375 6.43765625 12.83984375 6.09765625 C13.49756803 3.06831134 13.49756803 3.06831134 13.83984375 0.09765625 C21.25345632 -0.0279982 21.25345632 -0.0279982 24.46484375 0.66015625 C26.97400727 1.26533332 26.97400727 1.26533332 30.02734375 0.53515625 C31.41953125 0.31859375 31.41953125 0.31859375 32.83984375 0.09765625 C33.49984375 0.75765625 34.15984375 1.41765625 34.83984375 2.09765625 C34.46484375 5.72265625 34.46484375 5.72265625 33.83984375 9.09765625 C32.02734375 9.72265625 32.02734375 9.72265625 29.83984375 10.09765625 C28.84984375 9.43765625 27.85984375 8.77765625 26.83984375 8.09765625 C24.97837182 8.45543974 24.97837182 8.45543974 22.83984375 9.09765625 C20.63373257 9.21477079 18.42402616 9.27268908 16.21484375 9.28515625 C14.49394531 9.30642578 14.49394531 9.30642578 12.73828125 9.328125 C9.83984375 9.09765625 9.83984375 9.09765625 7.83984375 7.09765625 C7.71484375 4.47265625 7.71484375 4.47265625 7.83984375 2.09765625 C7.17984375 2.09765625 6.51984375 2.09765625 5.83984375 2.09765625 C6.16984375 4.07765625 6.49984375 6.05765625 6.83984375 8.09765625 C5.84984375 8.42765625 4.85984375 8.75765625 3.83984375 9.09765625 C3.83984375 6.78765625 3.83984375 4.47765625 3.83984375 2.09765625 C1.85984375 2.75765625 -0.12015625 3.41765625 -2.16015625 4.09765625 C-0.84015625 4.42765625 0.47984375 4.75765625 1.83984375 5.09765625 C1.52734375 7.03515625 1.52734375 7.03515625 0.83984375 9.09765625 C-2.16015625 10.09765625 -2.16015625 10.09765625 -5.16015625 9.09765625 C-4.99515625 8.52015625 -4.83015625 7.94265625 -4.66015625 7.34765625 C-4.01553594 4.83101256 -4.01553594 4.83101256 -4.16015625 1.09765625 C-3.16015625 0.09765625 -3.16015625 0.09765625 0 0 Z M18.83984375 2.09765625 C18.83984375 3.74765625 18.83984375 5.39765625 18.83984375 7.09765625 C19.82984375 6.76765625 20.81984375 6.43765625 21.83984375 6.09765625 C21.83984375 5.10765625 21.83984375 4.11765625 21.83984375 3.09765625 C20.84984375 2.76765625 19.85984375 2.43765625 18.83984375 2.09765625 Z M29.83984375 2.09765625 C29.50984375 3.74765625 29.17984375 5.39765625 28.83984375 7.09765625 C30.15984375 6.76765625 31.47984375 6.43765625 32.83984375 6.09765625 C32.83984375 5.10765625 32.83984375 4.11765625 32.83984375 3.09765625 C31.84984375 2.76765625 30.85984375 2.43765625 29.83984375 2.09765625 Z " fill="#FBFBFB" transform="translate(272.16015625,363.90234375)"/>
<path d="M0 0 C0.74362793 0.01047363 1.48725586 0.02094727 2.25341797 0.03173828 C3.46191406 0.04140625 3.46191406 0.04140625 4.69482422 0.05126953 C5.95746094 0.07640625 5.95746094 0.07640625 7.24560547 0.10205078 C8.51984375 0.11558594 8.51984375 0.11558594 9.81982422 0.12939453 C11.9202043 0.15299431 14.02043991 0.18886595 16.12060547 0.22705078 C16.12060547 0.88705078 16.12060547 1.54705078 16.12060547 2.22705078 C15.13060547 2.22705078 14.14060547 2.22705078 13.12060547 2.22705078 C13.12060547 2.88705078 13.12060547 3.54705078 13.12060547 4.22705078 C15.06135408 3.95087545 15.06135408 3.95087545 17.12060547 3.22705078 C17.78060547 2.23705078 18.44060547 1.24705078 19.12060547 0.22705078 C19.78060547 0.22705078 20.44060547 0.22705078 21.12060547 0.22705078 C22.11060547 3.19705078 23.10060547 6.16705078 24.12060547 9.22705078 C21.51581664 9.30798208 18.91353894 9.36750512 16.30810547 9.41455078 C15.20112305 9.45225586 15.20112305 9.45225586 14.07177734 9.49072266 C8.57085785 9.56539577 8.57085785 9.56539577 6.10888672 7.71533203 C5.78275391 7.22419922 5.45662109 6.73306641 5.12060547 6.22705078 C5.12060547 7.21705078 5.12060547 8.20705078 5.12060547 9.22705078 C2.30810547 9.85205078 2.30810547 9.85205078 -0.87939453 10.22705078 C-1.86939453 9.56705078 -2.85939453 8.90705078 -3.87939453 8.22705078 C-4.19189453 5.22705078 -4.19189453 5.22705078 -3.87939453 2.22705078 C-1.87939453 0.22705078 -1.87939453 0.22705078 0 0 Z M5.12060547 2.22705078 C5.12060547 2.88705078 5.12060547 3.54705078 5.12060547 4.22705078 C6.11060547 3.89705078 7.10060547 3.56705078 8.12060547 3.22705078 C7.13060547 2.89705078 6.14060547 2.56705078 5.12060547 2.22705078 Z M0.12060547 2.22705078 C-0.86939453 2.72205078 -0.86939453 2.72205078 -1.87939453 3.22705078 C-1.54939453 4.54705078 -1.21939453 5.86705078 -0.87939453 7.22705078 C0.44060547 7.22705078 1.76060547 7.22705078 3.12060547 7.22705078 C3.12060547 5.90705078 3.12060547 4.58705078 3.12060547 3.22705078 C2.13060547 2.89705078 1.14060547 2.56705078 0.12060547 2.22705078 Z " fill="#FCFCFC" transform="translate(218.87939453125,363.77294921875)"/>
<path d="M0 0 C3.63 0 7.26 0 11 0 C11.66 1.32 12.32 2.64 13 4 C13.66 2.68 14.32 1.36 15 0 C17.64 0 20.28 0 23 0 C23 0.66 23 1.32 23 2 C21.68 2 20.36 2 19 2 C19 2.66 19 3.32 19 4 C19.99 4 20.98 4 22 4 C22.33 5.65 22.66 7.3 23 9 C21.02 9 19.04 9 17 9 C16.67 8.01 16.34 7.02 16 6 C15.01 7.485 15.01 7.485 14 9 C13.01 8.67 12.02 8.34 11 8 C10.67 7.01 10.34 6.02 10 5 C9.67 6.32 9.34 7.64 9 9 C8.34 9 7.68 9 7 9 C7 6.69 7 4.38 7 2 C6.34 2 5.68 2 5 2 C5 4.31 5 6.62 5 9 C4.01 9 3.02 9 2 9 C2 6.69 2 4.38 2 2 C1.34 2 0.68 2 0 2 C0 1.34 0 0.68 0 0 Z " fill="#FBFBFB" transform="translate(242,364)"/>
</svg>
